# xmcd
#
# Track frame offsets:
#	150
#	13277
#	29647
#	44915
#	55962
#	66937
#	86467
#	101010
#	116117
#	130060
#	141812
#	160520
#
# Disc length: 2556 seconds
#
# Revision: 2
# Processed by: cddbd v1.5.2PL0 Copyright (c) Steve Scherf et al.
# Submitted via: EasyCDDAExtractor 16.0.1.1
#
DISCID=ad09fa0c
DTITLE=Susan McCann - A Mother's Love Is A Blessing  (1990)
DYEAR=1990
DGENRE=Country
TTITLE0=A Mother's Love Is A Blessing
TTITLE1=Sometimes When We Touch
TTITLE2=Where Is My Norah
TTITLE3=Thank God For The Kids
TTITLE4=Heaven Around Galway Bay
TTITLE5=Danny Boy [live]
TTITLE6=Broken Speed Of The Sound Of Loneliness
TTITLE7=Give Me More Time
TTITLE8=Never Mind
TTITLE9=When The New Wears Off Of Our Love
TTITLE10=You Seldome Come And See Me
TTITLE11=Medley ~Whiskey In The Jar+It's A Long Way To Tipperary... [live]
EXTD=
EXTT0=
EXTT1=
EXTT2=
EXTT3=
EXTT4=
EXTT5=
EXTT6=
EXTT7=
EXTT8=
EXTT9=
EXTT10=
EXTT11=
PLAYORDER=
